<?xml version="1.0" encoding="UTF-8"?>
<svg id="Capa_1" data-name="Capa 1" xmlns="http://www.w3.org/2000/svg" viewBox="0 0 750 800">
  <defs>
    <style>
      .cls-1 {
        fill: #db8f44;
        stroke-width: 0px;
      }
    </style>
  </defs>
  <path class="cls-1" d="m50,100h250c27.61,0,50-22.39,50-50S327.61,0,300,0H50C22.39,0,0,22.38,0,50s22.39,50,50,50Z"/>
  <path class="cls-1" d="m50,250h250c27.61,0,50-22.39,50-50s-22.39-50-50-50H50c-27.61,0-50,22.38-50,50s22.39,50,50,50Z"/>
  <path class="cls-1" d="m350,350c0-27.62-22.39-50-50-50H50c-27.61,0-50,22.38-50,50s22.39,50,50,50h250c27.61,0,50-22.39,50-50Z"/>
  <path class="cls-1" d="m617.7,118.62c-28.57-22.05-67.7-52.25-67.7-68.62,0-27.61-22.39-50-50-50s-50,22.39-50,50v458.72c-15.66-5.55-32.44-8.72-50-8.72-82.84,0-150,67.16-150,150s67.16,150,150,150,150-67.16,150-150V192.65c2.21,1.71,4.41,3.44,6.61,5.15,56.41,43.52,93.39,75.12,93.39,116.1,0,63.7-33.88,99.24-34.85,100.26-19.8,19.25-20.25,50.9-1,70.7,9.8,10.08,22.82,15.15,35.86,15.15s25.13-4.7,34.85-14.15c6.67-6.48,65.15-66.38,65.15-171.96,0-93.19-73.36-149.79-132.3-195.28Z"/>
</svg>